<svg width="90" height="35" fill="none" xmlns="http://www.w3.org/2000/svg"><path d="M23.961 20.67c-.803 0-1.529-.178-2.178-.533a3.968 3.968 0 01-1.517-1.47 4.187 4.187 0 01-.545-2.12c0-.78.182-1.484.545-2.11.37-.632.88-1.127 1.529-1.482.649-.355 1.375-.533 2.178-.533.602 0 1.158.1 1.668.301.51.201.942.494 1.297.88l-.544.545c-.633-.64-1.433-.961-2.398-.961-.641 0-1.224.146-1.75.44a3.26 3.26 0 00-1.239 1.205 3.373 3.373 0 00-.44 1.714c0 .633.147 1.205.44 1.715.301.51.715.91 1.24 1.204.525.294 1.108.44 1.749.44.973 0 1.772-.324 2.398-.973l.544.545a3.558 3.558 0 01-1.309.892c-.51.2-1.065.301-1.668.301zm7.837-8.178h.857v7.367h4.541v.742h-5.398v-8.11zm15.599 7.368v.74h-5.734v-8.109h5.56v.742H42.52v2.884h4.193v.73H42.52v3.012h4.877zm10.143-1.426h-4.517l-.974 2.167h-.892l3.708-8.11h.845l3.707 8.11h-.903l-.973-2.167zm-.312-.695l-1.946-4.356-1.946 4.356h3.892zm12.1 2.861l-1.854-2.606a5.865 5.865 0 01-.648.035h-2.178v2.572h-.857v-8.11h3.035c1.035 0 1.845.248 2.432.742s.88 1.174.88 2.039c0 .633-.161 1.17-.486 1.61-.316.433-.772.745-1.367.938l1.981 2.78h-.938zm-2.526-3.3c.804 0 1.418-.179 1.842-.534.425-.355.637-.853.637-1.494 0-.657-.212-1.159-.637-1.506-.424-.355-1.038-.533-1.842-.533h-2.154v4.066h2.154zM8.368 26.822v8.108h.858v-3.588a7.236 7.236 0 012.54-.478 7.232 7.232 0 012.534.474v3.592h.845v-8.108H14.3v3.711c.146.07.29.145.43.227a7.237 7.237 0 00-2.964-.643 7.263 7.263 0 00-2.982.654 5.81 5.81 0 01.442-.233v-3.716h-.858zM24.357 35a4.525 4.525 0 01-2.19-.533 4.03 4.03 0 01-1.529-1.483c-.363-.625-.544-1.328-.544-2.108s.181-1.483.544-2.108c.37-.626.88-1.116 1.53-1.472a4.448 4.448 0 012.189-.544c.803 0 1.525.178 2.166.533a3.92 3.92 0 011.53 1.483c.37.625.555 1.328.555 2.108s-.185 1.487-.556 2.12a3.945 3.945 0 01-1.529 1.471c-.64.355-1.363.533-2.166.533zm0-.765c.64 0 1.22-.142 1.737-.428a3.196 3.196 0 001.217-1.205c.293-.517.44-1.093.44-1.726s-.147-1.205-.44-1.715a3.092 3.092 0 00-1.217-1.204 3.46 3.46 0 00-1.737-.44c-.641 0-1.224.146-1.75.44a3.173 3.173 0 00-1.227 1.204 3.374 3.374 0 00-.44 1.715c0 .633.146 1.209.44 1.726.3.51.71.911 1.228 1.205a3.6 3.6 0 001.749.428zm14.753.695l-1.853-2.606a5.866 5.866 0 01-.649.035H34.43v2.572h-.857v-8.11h3.035c1.035 0 1.846.248 2.433.742.587.494.88 1.174.88 2.039 0 .633-.162 1.17-.486 1.61-.317.433-.773.745-1.367.938l1.98 2.78h-.938zm-2.525-3.301c.803 0 1.417-.178 1.842-.533.425-.355.637-.853.637-1.494 0-.657-.212-1.159-.637-1.506-.425-.355-1.039-.533-1.842-.533H34.43v4.066h2.155zm8.391-4.808h.858v8.11h-.858v-8.11zm12.389 7.369v.74h-6.65v-.59l5.376-6.777h-5.294v-.742h6.43v.591l-5.364 6.777h5.502zm8.261.81a4.524 4.524 0 01-2.19-.533 4.029 4.029 0 01-1.528-1.483c-.363-.625-.545-1.328-.545-2.108s.182-1.483.545-2.108c.37-.626.88-1.116 1.529-1.472a4.447 4.447 0 012.19-.544c.802 0 1.525.178 2.166.533a3.92 3.92 0 011.529 1.483c.37.625.556 1.328.556 2.108s-.186 1.487-.556 2.12a3.945 3.945 0 01-1.53 1.471c-.64.355-1.363.533-2.166.533zm0-.765c.641 0 1.22-.142 1.738-.428a3.197 3.197 0 001.216-1.205c.294-.517.44-1.093.44-1.726s-.146-1.205-.44-1.715a3.093 3.093 0 00-1.216-1.204 3.46 3.46 0 00-1.738-.44c-.64 0-1.224.146-1.75.44a3.173 3.173 0 00-1.227 1.204 3.373 3.373 0 00-.44 1.715c0 .633.146 1.209.44 1.726.301.51.71.911 1.228 1.205a3.6 3.6 0 001.75.428zm15.994-7.414v8.11h-.708L75.7 28.35v6.58h-.857v-8.11h.707l5.224 6.58v-6.58h.846z" fill="#00AAD4"/><path d="M45.134 0A88.498 88.498 0 000 12.492a109.485 109.485 0 0145.134-9.886 109.485 109.485 0 0144.853 9.714A88.498 88.498 0 0045.134 0z" fill="#00AAD4"/></svg>